<?xml version="1.0" encoding="UTF-8" standalone="no"?>
<svg
   version="1.1"
   id="Layer_1"
   x="0px"
   y="0px"
   viewBox="0 0 400 400"
   xml:space="preserve"
   sodipodi:docname="blackbird-logo-square.svg"
   width="400"
   height="400"
   inkscape:version="1.4 (e7c3feb1, 2024-10-09)"
   xmlns:inkscape="http://www.inkscape.org/namespaces/inkscape"
   xmlns:sodipodi="http://sodipodi.sourceforge.net/DTD/sodipodi-0.dtd"
   xmlns="http://www.w3.org/2000/svg"
   xmlns:svg="http://www.w3.org/2000/svg"><defs
   id="defs80" /><sodipodi:namedview
   id="namedview80"
   pagecolor="#ffffff"
   bordercolor="#000000"
   borderopacity="0.25"
   inkscape:showpageshadow="2"
   inkscape:pageopacity="0.0"
   inkscape:pagecheckerboard="0"
   inkscape:deskcolor="#d1d1d1"
   inkscape:zoom="0.37383201"
   inkscape:cx="-49.487468"
   inkscape:cy="367.81227"
   inkscape:window-width="1472"
   inkscape:window-height="838"
   inkscape:window-x="0"
   inkscape:window-y="158"
   inkscape:window-maximized="1"
   inkscape:current-layer="Layer_1" /> <style
   type="text/css"
   id="style1"> .st0{fill:#013656;} </style>  <g
   id="g80"
   transform="matrix(0.98599164,0,0,0.98599164,94.874383,0.67392068)"
   style="stroke-width:1.01421"> <g
   id="XMLID_5_"
   style="stroke-width:1.01421"> <g
   id="g12"
   style="stroke-width:1.01421"> <path
   class="st0"
   d="m 106.2,131.5 c -15.6,0.9 -25.2,20.3 -25.3,34.1 0,0.1 0,0.2 0,0.2 -0.2,0.3 -0.2,0.6 0,1 2.5,6.5 -1.1,12.9 -2.2,19.3 -0.8,5.1 -1.3,10.4 -1.9,15.5 -0.2,0 -0.4,0 -0.6,0 -0.1,0 -0.3,-0.1 -0.4,-0.1 -8.5,-12.2 -13.7,-29.5 -13,-45.8 0.7,-15.1 6.4,-29.2 19.4,-37.6 14.3,-9.3 32.4,-9.3 48.2,-4.5 15.7,4.8 27.4,15.7 32.1,31.6 2.7,9 2.8,18.6 1,27.7 -1.2,6.2 -3.2,14.2 -6.9,20.3 -1.4,2.4 -3.2,4.5 -5.2,6.1 -0.1,0 -0.3,0.1 -0.5,0.2 -3.3,1.8 -2.9,-5.3 -3.1,-6.8 -0.2,-1.3 -0.3,-2.5 -0.6,-3.8 -0.7,-3.6 -1.9,-6.9 -3.2,-10.3 -2.3,-6.2 -1.8,-12.9 -4.4,-19 -0.1,-0.3 -0.4,-0.5 -0.6,-0.6 -1.1,-7.8 -6,-13.6 -11.4,-19.1 -5.7,-5.9 -13,-8.9 -21.4,-8.4 z"
   id="path10"
   style="stroke-width:1.01421" /> <path
   class="st0"
   d="m 130.4,113.7 c -15.8,-4.8 -34,-4.8 -48.2,4.5 -13,8.4 -18.7,22.6 -19.4,37.6 l -2.3,-0.1 c 0.1,-2.5 0.3,-5.1 0.7,-7.6 2.2,-16.5 11.5,-29.6 27,-36.2 16.7,-7.1 37.7,-4.9 53.7,3.3 14.4,7.4 23.3,22.3 25.3,38 1.2,9.3 0.1,18.7 -2.6,27.6 -1.4,4.5 -3,9.5 -5.5,13.7 l -2.3,-1.3 c 3.7,-6.1 5.7,-14.1 6.9,-20.3 1.8,-9.1 1.7,-18.7 -1,-27.7 -4.9,-15.8 -16.6,-26.7 -32.3,-31.5 z"
   id="path11"
   style="stroke-width:1.01421" /> <path
   class="st0"
   d="m 106.2,134.2 c -14,0.9 -22.4,19.1 -22.5,31.3 0,0.2 0,0.4 -0.1,0.6 2.1,5.5 0.3,10.6 -1.1,16 -1.8,6.8 -2.2,14 -3,20.9 -0.1,0.6 -0.4,1.2 -1,1.3 -1.4,0.3 -1.6,0.3 -2.9,-0.1 -0.3,-0.1 -0.6,-0.3 -0.7,-0.5 -0.4,0 -0.9,-0.2 -1.2,-0.6 -9.8,-13.8 -13.9,-30.8 -13.1,-47.5 l 2.3,0.1 c -0.7,16.3 4.5,33.6 13,45.8 0.1,0 0.3,0 0.4,0.1 0.2,0 0.4,0 0.6,0 0.6,-5.2 1.1,-10.4 1.9,-15.5 1.1,-6.4 4.7,-12.8 2.2,-19.3 -0.2,-0.4 -0.1,-0.8 0,-1 0,-0.1 0,-0.2 0,-0.2 0.1,-13.8 9.7,-33.2 25.3,-34.1 8.4,-0.5 15.7,2.6 21.4,8.5 5.4,5.5 10.2,11.3 11.4,19.1 0.3,0.1 0.5,0.3 0.6,0.6 2.6,6.1 2,12.8 4.4,19 1.3,3.4 2.5,6.7 3.2,10.3 0.2,1.3 0.4,2.5 0.6,3.8 0.2,1.4 -0.1,8.6 3.1,6.8 0.2,-0.1 0.3,-0.1 0.5,-0.2 2,-1.6 3.7,-3.7 5.2,-6.1 l 2.3,1.3 c -1.7,2.9 -3.8,5.6 -6.5,7.6 -0.3,0.3 -0.6,0.3 -0.9,0.2 -6.7,2.9 -6.1,-7.3 -6.8,-11.8 -0.9,-5.3 -3.3,-9.8 -4.6,-15 -1.2,-4.8 -0.8,-9.9 -2.8,-14.6 -0.1,-0.1 -0.1,-0.2 -0.1,-0.4 -0.4,-0.2 -0.7,-0.6 -0.8,-1.1 -0.9,-7.5 -6.1,-13.1 -11.2,-18.3 -5.2,-5 -11.9,-7.4 -19.1,-7 z"
   id="path12"
   style="stroke-width:1.01421" /> </g> <g
   id="g13"
   style="stroke-width:1.01421"> </g> </g> <g
   id="g14"
   style="stroke-width:1.01421"> <path
   class="st0"
   d="m 139,158.6 c -3.8,-14.5 -15.7,-27.9 -31.9,-26.2 -14.5,1.5 -27.4,19.1 -26.3,33.3 0.2,2 3.2,2 3.1,0 -1,-13 11.2,-29.7 24.8,-30.3 14.3,-0.6 24,11.3 27.4,24 0.4,1.9 3.4,1.1 2.9,-0.8 z"
   id="path13"
   style="stroke-width:1.01421" /> </g> <g
   id="g15"
   style="stroke-width:1.01421"> <path
   class="st0"
   d="m 152.5,202.3 c 6.5,-5 9.7,-13.6 12,-21.2 2.8,-9.2 3.9,-19 2.6,-28.6 -2.2,-15.7 -11.3,-30.3 -25.7,-37.6 -16,-8.1 -36.9,-10.2 -53.6,-3 -15.5,6.7 -24.6,19.9 -26.8,36.4 -2.5,19.2 1.3,39.1 12.5,55.1 1.1,1.6 3.8,0.1 2.7,-1.6 -16.5,-23.4 -20.9,-66 6.2,-83.5 13.9,-9 31.6,-9.2 47.1,-4.7 15.7,4.6 27.6,15.1 32.7,30.9 2.8,8.9 3.1,18.5 1.4,27.7 -1.7,9.1 -4.9,21.6 -12.6,27.5 -1.7,1.1 -0.1,3.8 1.5,2.6 z"
   id="path14"
   style="stroke-width:1.01421" /> </g> <g
   id="g16"
   style="stroke-width:1.01421"> <path
   class="st0"
   d="m 128.9,155.3 c 0.2,13 -2.7,30.4 -19.5,29.5 -13.8,-0.7 -22.8,-14.1 -19.7,-27.2 0.5,-1.9 -2.5,-2.8 -3,-0.8 -3.4,14.6 6,29.3 21.2,31 6.8,0.8 14.2,-1.5 18.4,-7.1 5.2,-6.8 5.7,-17.1 5.6,-25.3 0.1,-2 -3,-2 -3,-0.1 z"
   id="path15"
   style="stroke-width:1.01421" /> </g> <g
   id="g17"
   style="stroke-width:1.01421"> <path
   class="st0"
   d="m 131.5,159.4 c -0.1,6.6 -2.9,12.8 -3.9,19.3 -0.9,6 -0.6,11.8 0.1,17.8 0.8,6.8 1.6,13.4 -0.3,20.1 -1.9,6.5 -5.5,12.4 -9.3,17.9 -1.1,1.6 1.6,3.2 2.7,1.6 7.7,-11.2 12,-22 10.4,-35.7 -0.8,-7.1 -1.7,-13.9 -0.7,-21 1,-6.7 3.8,-13 3.9,-19.9 0.2,-2.1 -2.9,-2.1 -2.9,-0.1 z"
   id="path16"
   style="stroke-width:1.01421" /> </g> <g
   id="g18"
   style="stroke-width:1.01421"> <path
   class="st0"
   d="m 138,167.3 c 1.4,15.2 12.4,29.2 4.9,44.4 -2.8,5.6 -6.5,10.6 -7.8,16.8 -1.4,6.5 -0.5,13.1 0.7,19.6 0.4,2 3.4,1.1 3,-0.8 -1.6,-8.4 -2.2,-16.8 1.7,-24.7 2.6,-5.2 6.1,-10 7.6,-15.7 3.6,-13.7 -5.7,-26.2 -7,-39.5 -0.2,-2.1 -3.3,-2.1 -3.1,-0.1 z"
   id="path17"
   style="stroke-width:1.01421" /> </g> <g
   id="g19"
   style="stroke-width:1.01421"> <path
   class="st0"
   d="m 87.2,179 c 2.9,6.3 5.9,12.9 6.6,19.9 0.7,7.3 -2.6,12.9 -4.1,19.8 -2.6,12 4.5,20.3 7.6,31.2 0.5,1.9 3.5,1.1 3,-0.8 -1.7,-5.8 -5,-11 -6.9,-16.7 -2.5,-7.8 -0.2,-14.2 2.2,-21.6 3.8,-11.6 -0.9,-22.8 -5.7,-33.4 -0.9,-1.8 -3.5,-0.2 -2.7,1.6 z"
   id="path18"
   style="stroke-width:1.01421" /> </g> <g
   id="g20"
   style="stroke-width:1.01421"> <path
   class="st0"
   d="m 81.6,171.2 c -0.3,7.7 -3,14.9 -4,22.5 -0.8,6.4 0.5,12 2.6,18 1.1,3.3 2.4,6.6 3,10 0.7,4.2 0,8.3 -0.3,12.5 -0.5,6 -0.1,11.6 3.4,16.7 1.1,1.6 3.8,0.1 2.7,-1.6 -4.4,-6.4 -2.9,-13.4 -2.4,-20.7 0.4,-6.3 -1.2,-11.8 -3.3,-17.7 -2.6,-7.4 -3.3,-13.9 -1.7,-21.6 1.3,-6 3,-11.9 3.2,-18.1 -0.1,-2 -3.1,-2 -3.2,0 z"
   id="path19"
   style="stroke-width:1.01421" /> </g> <g
   id="g21"
   style="stroke-width:1.01421"> <path
   class="st0"
   d="m 133.9,180.5 c -1.1,6 0.3,11.8 0.5,17.8 0.2,6.8 -0.6,13.6 -2.4,20.2 -1.7,6 -4.7,11.5 -6.4,17.5 -1.7,5.9 -1.9,11.9 -1,17.9 0.3,2 3.3,1.1 3,-0.8 -2,-13.8 5.4,-24.3 8.3,-37.2 1.1,-4.8 1.7,-9.8 1.7,-14.8 0,-6.5 -1.9,-13.2 -0.7,-19.7 0.3,-2 -2.6,-2.9 -3,-0.9 z"
   id="path20"
   style="stroke-width:1.01421" /> </g> <g
   id="g22"
   style="stroke-width:1.01421"> <path
   class="st0"
   d="m 125.4,205 c -2.1,3.3 -4.7,5.8 -8,7.9 -2.1,1.3 -4.3,2.2 -5.9,4.1 -2.8,3.4 -2.8,8 -2.6,12.2 0.1,2 3.2,2 3.1,0 -0.1,-2.3 -0.3,-4.9 0.4,-7.1 1.2,-4 4.1,-4.9 7.3,-6.9 3.5,-2.2 6.2,-5.1 8.5,-8.6 0.9,-1.7 -1.8,-3.3 -2.8,-1.6 z"
   id="path21"
   style="stroke-width:1.01421" /> </g> <g
   id="g23"
   style="stroke-width:1.01421"> <path
   class="st0"
   d="m 111,223 c -0.9,-2.5 -2.5,-4.3 -4.5,-5.9 -1.5,-1.2 -8.2,-4.4 -7.4,-6.7 0.6,-1.9 -2.4,-2.7 -3,-0.8 -0.9,2.8 1.6,5.1 3.7,6.6 3,2.2 6.9,3.9 8.3,7.6 0.5,1.9 3.5,1.1 2.9,-0.8 z"
   id="path22"
   style="stroke-width:1.01421" /> </g> <g
   id="g24"
   style="stroke-width:1.01421"> <path
   class="st0"
   d="m 148.5,204.5 c 10.1,2.3 14.9,11.9 21.8,18.6 6.1,6 13.5,10.5 17.9,18.1 1,1.7 3.7,0.2 2.7,-1.6 -4.8,-8.3 -13,-13.1 -19.5,-19.8 -6.8,-7 -11.9,-16 -22.1,-18.3 -1.9,-0.4 -2.7,2.6 -0.8,3 z"
   id="path23"
   style="stroke-width:1.01421" /> </g> <g
   id="g25"
   style="stroke-width:1.01421"> <path
   class="st0"
   d="m 198.5,253.6 c -2.4,-4 -2,-9 -5.4,-12.5 -3,-3.2 -8.1,-4.7 -12.3,-5.4 -8.1,-1.5 -16.6,1 -20.7,8.5 -1,1.7 1.7,3.3 2.7,1.6 4.2,-7.6 13.1,-8.5 20.7,-6.2 4.8,1.4 8.1,3.6 9.7,8.4 0.9,2.5 1.2,5 2.6,7.3 1,1.5 3.7,0 2.7,-1.7 z"
   id="path24"
   style="stroke-width:1.01421" /> </g> <g
   id="g26"
   style="stroke-width:1.01421"> <path
   class="st0"
   d="m 165.1,245.6 c 7.5,-0.4 14.8,0.2 20.3,5.8 1.8,1.8 2.8,3.3 3.1,5.9 0.3,2.8 -0.4,3.6 -2.3,5.5 -2.9,3.1 -6.3,5.8 -10.7,6.2 -2,0.2 -2,3.3 0,3.1 7,-0.6 19.8,-9 16.2,-17.3 -4.5,-10.6 -16.6,-12.9 -26.7,-12.4 -1.9,0.2 -1.9,3.3 0.1,3.2 z"
   id="path25"
   style="stroke-width:1.01421" /> </g> <g
   id="g27"
   style="stroke-width:1.01421"> <path
   class="st0"
   d="m 175.8,273.7 c 6.1,0.7 11.8,-1.5 16.5,-5.4 2.3,-1.9 4.6,-4.3 6,-7.1 1.5,-2.9 0.9,-5.2 0.6,-8.3 -0.2,-2 -3.3,-2 -3.1,0 0.2,2.6 0.5,4.9 -0.6,7.3 -1,2.3 -3.6,4.6 -5.5,6.1 -4.1,3.2 -8.8,4.8 -13.9,4.2 -1.9,-0.1 -1.9,3 0,3.2 z"
   id="path26"
   style="stroke-width:1.01421" /> </g> <g
   id="g28"
   style="stroke-width:1.01421"> <path
   class="st0"
   d="m 64,235.6 c 0.3,-2.3 0.6,-4.5 0.3,-6.8 -0.1,-1 -0.3,-2 -0.7,-3 -0.1,-0.3 -0.3,-0.7 -0.4,-1 -0.2,-0.3 -0.3,-0.6 -0.6,-0.9 -0.2,-0.4 -0.3,-0.4 -0.1,0.1 -0.5,0.5 -1,1 -1.5,1.5 0.1,0 0.1,0 0.2,0 -0.5,-0.5 -1,-1 -1.5,-1.5 0,0 0,0.1 0,0.1 -0.2,2 2.9,2 3.1,0 0,0 0,-0.1 0,-0.1 0.1,-0.9 -0.8,-1.5 -1.5,-1.5 -0.1,0 -0.1,0 -0.2,0 -0.9,-0.1 -1.5,0.8 -1.5,1.5 -0.1,0.6 0.2,1 0.5,1.5 0.6,1 1.1,2 1.3,3.2 0.4,2.3 0.1,4.7 -0.2,6.9 -0.5,1.9 2.6,1.9 2.8,0 z"
   id="path27"
   style="stroke-width:1.01421" /> </g> <g
   id="g29"
   style="stroke-width:1.01421"> <path
   class="st0"
   d="m 18.4,193.9 c -8.2,12.6 0.6,31.6 16,31.7 4.1,0 7.8,-1.7 11.6,-2.9 3.3,-0.9 6.8,-1 8.8,-4.1 4.1,-6.1 -0.9,-15.8 -3.8,-21.4 -0.9,-1.8 -3.6,-0.2 -2.7,1.6 1.8,3.5 6.7,12.7 4.4,16.9 -1.8,3.2 -7,3.8 -10.2,4.9 -2.7,0.9 -5.4,1.9 -8.3,1.9 -13.2,0 -20.2,-16.6 -13.4,-27.1 1.3,-1.6 -1.3,-3.1 -2.4,-1.5 z"
   id="path28"
   style="stroke-width:1.01421" /> </g> <g
   id="g30"
   style="stroke-width:1.01421"> <path
   class="st0"
   d="m 19.7,198.9 c 2,3.6 3.8,8.1 6.6,11.1 2.3,2.4 4.8,2.1 8,1.7 3.7,-0.5 8.8,-0.3 12.3,-1.9 2.7,-1.2 3.5,-4.2 3.9,-6.9 0.3,-1.9 -2.7,-2.8 -3,-0.8 -0.6,3.9 -3.6,4.8 -7.2,5.7 -2.2,0.5 -5.8,1.3 -8,1.1 -5.4,-0.6 -7.5,-7.3 -9.9,-11.5 -1,-1.7 -3.7,-0.2 -2.7,1.5 z"
   id="path29"
   style="stroke-width:1.01421" /> </g> <g
   id="g31"
   style="stroke-width:1.01421"> <path
   class="st0"
   d="m 23.5,195.9 c 4.3,-15.8 6.7,-32 7.3,-48.4 0.1,-2 -3,-2 -3.1,0 -0.6,16.1 -3,32 -7.2,47.5 -0.5,2 2.5,2.8 3,0.9 z"
   id="path30"
   style="stroke-width:1.01421" /> </g> <g
   id="g32"
   style="stroke-width:1.01421"> <path
   class="st0"
   d="m 42.4,152.2 c 0.9,8.4 1.4,16.8 2.1,25.2 0.6,8 3.5,18.7 0.5,26.4 -0.7,1.9 2.3,2.7 3,0.8 3,-7.7 0.3,-17.5 -0.3,-25.6 -0.7,-8.9 -1.2,-17.9 -2.2,-26.8 -0.2,-2 -3.3,-2 -3.1,0 z"
   id="path31"
   style="stroke-width:1.01421" /> </g> <g
   id="g33"
   style="stroke-width:1.01421"> <path
   class="st0"
   d="m 30.9,145.6 c -0.9,-4.5 -3.7,-7.5 -5.5,-11.7 -1.8,-4.1 -4.4,-13.8 0.3,-17.1 1.6,-1.1 0.1,-3.8 -1.6,-2.7 -3.8,2.7 -4.3,8 -3.8,12.2 0.3,3 1.1,6.2 2.3,8.9 1.8,3.9 4.5,6.6 5.4,11.1 0.3,2.1 3.3,1.3 2.9,-0.7 z"
   id="path32"
   style="stroke-width:1.01421" /> </g> <g
   id="g34"
   style="stroke-width:1.01421"> <path
   class="st0"
   d="m 162.3,244.5 c -6.2,4.3 -13.5,6.1 -20.1,9.7 -2.9,1.5 -5.6,3.3 -8.5,4.9 -6.3,3.5 -12.6,7.7 -19.2,10.5 -1.8,0.8 -0.3,3.4 1.6,2.7 6.6,-2.8 13,-6.9 19.2,-10.5 2.8,-1.6 5.6,-3.4 8.5,-4.9 6.6,-3.5 13.8,-5.4 20.1,-9.7 1.6,-1.2 0.1,-3.9 -1.6,-2.7 z"
   id="path33"
   style="stroke-width:1.01421" /> </g> <g
   id="g36"
   style="stroke-width:1.01421"> <g
   id="g35"
   style="stroke-width:1.01421"> <path
   class="st0"
   d="m 174,270.6 c -4,0 -7.4,1.5 -11.1,2.7 -4.4,1.5 -8.9,2.7 -13.4,3.7 -7.2,1.6 -16.6,1.1 -23,5.2 -1.6,1 -0.1,3.6 1.5,2.6 3.2,-2.1 6.7,-2.3 10.4,-2.8 4,-0.6 7.9,-1.3 11.8,-2.2 3.6,-0.8 7.2,-1.8 10.7,-2.9 4.2,-1.3 8.5,-3.5 13,-3.5 2,0.2 2,-2.8 0.1,-2.8 z"
   id="path34"
   style="stroke-width:1.01421" /> </g> </g> <g
   id="g37"
   style="stroke-width:1.01421"> <path
   class="st0"
   d="m 110.7,272 c -7,5.2 -13.1,11.5 -17.7,19 -4.5,7.2 -8.6,15.8 -7.3,24.4 0.1,0.5 0.6,1 1.1,1.1 2.2,0.4 6,0.5 7.4,-1.3 3.5,-4.5 -5.1,-2 -2,-14.1 0.9,-3.4 2.5,-6.8 4.4,-9.8 4.2,-6.4 9.6,-11.9 15.7,-16.5 1.6,-1.3 0,-4 -1.6,-2.8 z"
   id="path36"
   style="stroke-width:1.01421" /> </g> <g
   id="g38"
   style="stroke-width:1.01421"> <path
   class="st0"
   d="m 98.5,297.1 c -1.8,3.4 -3.4,5.8 -4.4,11.9 -0.6,3.5 -1.2,6.2 2,11.1 2,3 2.2,1.4 4.2,-2.1 1,-1.7 -1.2,-3.7 -2.2,-1.9 -1.3,2.4 -3,0 -2,-6.1 0.7,-4.1 2.1,-8.5 4,-12.1 1.1,-1.7 -0.6,-2.5 -1.6,-0.8 z"
   id="path37"
   style="stroke-width:1.01421" /> </g> <g
   id="g39"
   style="stroke-width:1.01421"> <path
   class="st0"
   d="m 104.2,299.5 c -2.4,4.1 -4.2,8.5 -5.1,13.1 -0.5,2.4 -1.7,6.9 1,8.5 2.2,1.3 5.6,-1.3 7.1,-2.7 1.9,-1.8 1,-3.8 1,-6.3 0,-2 -1,-4 -2,-1 -0.6,1.7 -2,7.1 -3.9,6.8 -1.2,-0.2 -1.4,-1.1 -1.2,-2.8 0.7,-4.9 2.6,-9.9 5.1,-14.1 1.1,-1.8 -0.9,-3.3 -2,-1.5 z"
   id="path38"
   style="stroke-width:1.01421" /> </g> <g
   id="g40"
   style="stroke-width:1.01421"> <path
   class="st0"
   d="m 111,301.1 c -3.2,5.1 -5.3,10 -4.8,16 0.1,1 1.7,2.2 2.7,2 6.2,-1.5 8.9,-11.9 11.3,-17 1.8,-3.8 5.1,-6.5 6.6,-10.4 1.2,-3 1.3,-5.9 0.8,-9.1 -0.3,-2 -3.3,-1.1 -3,0.8 1.1,7.5 -2.5,12.4 -5.3,18.5 -1.6,3.6 -9.9,15.2 -9.3,15.7 -3.8,-0.5 -0.7,-10 2.2,-14.6 1.2,-1.7 -0.1,-3.6 -1.2,-1.9 z"
   id="path39"
   style="stroke-width:1.01421" /> </g> <g
   id="g41"
   style="stroke-width:1.01421"> <path
   class="st0"
   d="m 59.6,245 c 4.8,-1.6 8.6,-2.6 13.1,0.8 1.5,1.2 2.7,2.5 3.8,4 2.4,3.2 4.7,6.5 7,9.8 4.2,5.9 8.1,12.7 13.2,18 1.4,1.4 3.6,-0.8 2.2,-2.2 -6.4,-6.5 -11.1,-15.2 -16.4,-22.6 -2,-2.8 -3.9,-5.9 -6.5,-8.3 -5.4,-5 -10.5,-4.6 -17.1,-2.5 -2,0.6 -1.2,3.6 0.7,3 z"
   id="path40"
   style="stroke-width:1.01421" /> </g> <g
   id="g42"
   style="stroke-width:1.01421"> <path
   class="st0"
   d="m 81.5,327.2 c 4.9,6.9 11.9,14.6 20.2,17.3 1.9,0.6 2.7,-2.3 0.8,-2.9 -7.5,-2.4 -14,-9.6 -18.4,-15.9 -1.1,-1.7 -3.7,-0.1 -2.6,1.5 z"
   id="path41"
   style="stroke-width:1.01421" /> </g> <path
   class="st0"
   d="m 179.2,340.2 c -0.5,-22.5 -7.2,-44.2 -9.8,-66.4 -0.1,-0.9 -0.8,-1.3 -1.5,-1.3 -0.2,-0.6 -0.8,-1.1 -1.7,-1 -7.4,1.3 -14.7,3.2 -21.8,5.8 -3.1,1.2 -6.2,2.3 -9.5,2.9 -2.9,0.5 -5.5,0.8 -8.1,1.9 -0.3,0 -0.6,0.1 -0.8,0.4 -0.2,0.2 -0.4,0.4 -0.4,0.6 -1.3,2.3 -1.7,4.6 -2.3,7.2 -0.9,3.8 -1.5,5.7 -3.8,8.6 -3.6,4.5 -5.9,10.7 -8.1,16.2 -0.8,1.9 -2.1,2.3 -4,3 -3.3,1.2 -7.5,1.7 -8.1,-0.5 -0.3,-1.1 -2.1,-0.5 -3,0.5 -0.4,0.5 -1.7,-4.2 -2,-4 -2.5,1.4 -2,2 -5.1,2 -3.3,0 -1.1,-8.3 -1,-8.7 0.3,-1.2 0.7,-2.4 1,-3.7 0.9,-2.8 2,-5.5 3.2,-8.2 2.4,-5 5.4,-9.5 8.9,-13.7 0.5,-0.6 0.4,-1.4 0,-1.9 -0.1,-0.1 -0.1,-0.2 -0.2,-0.3 -4.5,-4.5 -9.4,-9 -12.9,-14.5 -3,-4.8 -5.3,-10.1 -8.7,-14.7 -5.2,-6.9 -13.9,-11.8 -22.1,-7.6 -0.7,-0.5 -2.2,-0.2 -2.4,1.1 -0.8,6.4 -4.2,12 -9.4,15.7 -0.5,-0.2 -1.2,-0.1 -1.5,0.6 -0.1,0.2 -0.1,0.3 -0.2,0.5 -0.5,0.4 -0.6,0.9 -0.5,1.4 -6.4,16.8 -5.2,36 -5.8,53.7 -0.6,18.2 -1.7,35.8 9.6,51.3 1,1.4 3,0.3 2.5,-1.2 4.1,-1.8 7.4,-4 9.9,-8 3.8,-6.1 7.2,-12.2 11.7,-17.9 2,-2.5 4.1,-4.9 6.2,-7.2 0.7,-0.8 1.5,-1.5 2.2,-2.3 0.6,-1.3 1.4,-1.5 2.4,-0.5 1.6,0.4 2.3,2 3.3,3.2 3.8,4.4 8.3,7.9 13.2,10.7 -1.2,4 -2.4,8.1 -4.7,11.6 -2.1,3.2 -5,5.8 -6.8,9.2 -3.3,6.1 -4,13.2 -6.4,19.6 -0.2,0.4 -0.3,0.9 -0.5,1.3 -0.3,0.7 0.3,1.5 1,1.7 13.1,3.9 26.8,4.6 40.2,1.9 0,0 0,0 0,0 0,0 0,0 0,0 1,0.1 2.1,-0.9 1.4,-2 -2.8,-4.5 -2.5,-9.6 -4.6,-14.4 -1.9,-4.4 -3.6,-8 -7.1,-11.1 -4.9,-4.4 -8.9,-14.4 -3.3,-19 0.7,-0.6 1.4,-1.1 2.2,-1.6 -2.1,0.9 -4.2,1.8 -6.4,2.5 -1.9,0.7 -2.7,-2.3 -0.8,-3 24.8,-8.7 46.3,-29.8 56.6,-54 0.8,-1.8 3.4,-0.2 2.7,1.6 -8.2,19.3 -23.4,36.5 -41.7,47.5 2,-0.8 3.9,-1.6 5.7,-2.4 -0.2,0.3 -0.2,0.8 0.1,1.2 2.3,3.6 5,6.7 8.4,9.4 3.9,3.2 2.5,7.3 4.1,11.6 3.6,9.4 14.9,14.5 14.7,25.5 0,1.3 1.5,1.7 2.3,1 0.3,0.1 0.5,0.1 0.9,0 7.2,-2.8 13.2,-7.7 17.2,-14.4 5.1,-8.2 5.6,-18.1 5.4,-27.4 z M 91.9,322.4 c -1.6,0.7 -3.1,1.5 -4.6,2.5 0,0.9 -1.1,1.7 -2,1.4 -0.4,0.3 -0.8,0.7 -1.3,1 -1.5,1.3 -3.7,-0.9 -2.2,-2.2 0.4,-0.4 0.9,-0.7 1.4,-1.1 -5.8,-7.9 -14.2,-14.4 -20.9,-21.4 -6.1,-6.4 -12,-13 -14.6,-21.6 -0.6,-1.9 2.4,-2.7 3,-0.8 5.5,18 24.3,27.5 35,42.1 1.7,-1.1 3.4,-2 5.3,-2.8 1.9,-0.9 2.7,2.1 0.9,2.9 z"
   id="path42"
   style="stroke-width:1.01421" /> <g
   id="g43"
   style="stroke-width:1.01421"> <path
   class="st0"
   d="m 96.9,277.2 c 1.3,1.3 2.2,2.9 2.8,4.7 0.6,1.9 3.5,1.1 2.9,-0.8 -0.7,-2.3 -1.9,-4.3 -3.6,-6 -1.3,-1.4 -3.5,0.7 -2.1,2.1 z"
   id="path43"
   style="stroke-width:1.01421" /> </g> <g
   id="g45"
   style="stroke-width:1.01421"> <g
   id="g44"
   style="stroke-width:1.01421"> <path
   class="st0"
   d="m 167.7,275.6 c 3.3,19.8 7.5,39.7 9.7,59.7 1.1,9.9 0.6,19.8 -3.3,29.1 -2.1,4.9 -4.8,9.1 -9.3,12.1 -3.8,2.5 -8.1,4.3 -12.1,6.4 -1.7,0.9 -0.2,3.5 1.5,2.6 8.2,-4.2 16.2,-7.5 20.8,-15.9 4.7,-8.7 6.4,-18.6 5.9,-28.5 -0.5,-10.8 -2.8,-21.5 -4.6,-32.1 -1.9,-11.4 -3.8,-22.8 -5.7,-34.2 -0.3,-1.9 -3.2,-1.1 -2.9,0.8 z"
   id="path44"
   style="stroke-width:1.01421" /> </g> </g> <g
   id="g47"
   style="stroke-width:1.01421"> <g
   id="g46"
   style="stroke-width:1.01421"> <path
   class="st0"
   d="m 43.4,263.1 c -2.6,14.9 -4.2,30 -4.6,45.1 -0.6,20.5 -3.5,42.3 7.7,60.6 1,1.6 3.6,0.1 2.6,-1.5 -11.1,-18.1 -7.9,-40.7 -7.3,-61 0.5,-14.2 2,-28.4 4.5,-42.4 0.4,-1.9 -2.5,-2.7 -2.9,-0.8 z"
   id="path45"
   style="stroke-width:1.01421" /> </g> </g> <g
   id="g48"
   style="stroke-width:1.01421"> <path
   class="st0"
   d="m 98.3,345.2 c 0.4,8.1 -6.3,12.9 -10.5,19 -3.1,4.5 -4.4,9.7 -6.1,14.7 -0.9,2.8 -1.8,5.7 -3.4,8.2 -1.5,2.5 -3.1,4.9 -6.9,3.8 -1.5,-0.4 -5.5,-1 -7.6,-2 -7.3,-3.7 -15.2,-10.1 -17.9,-15 -1,-1.7 -2.5,0.9 -1.6,2.7 2.3,4.3 6.9,7.3 11.4,10.3 4.1,2.8 11,5.9 15.6,7.6 5.3,1.9 9,-4.2 10.9,-8.3 3.1,-6.7 3.9,-14.3 8.1,-20.4 4.6,-6.7 11.3,-11.7 10.9,-20.6 0.1,-2 -3,-2 -2.9,0 z"
   id="path47"
   style="stroke-width:1.01421" /> </g> <g
   id="g49"
   style="stroke-width:1.01421"> <path
   class="st0"
   d="m 76,386.8 c -1,-4 -9.1,-11.1 -15.2,-14.1 -2.7,-1.3 -9.1,-5.1 -10.4,-2 -0.8,1.8 15.5,3.1 23.4,17.8 1,1.7 2.3,-1 2.2,-1.7 z"
   id="path48"
   style="stroke-width:1.01421" /> </g> <g
   id="g50"
   style="stroke-width:1.01421"> <path
   class="st0"
   d="m 81.1,328.7 c -4.2,3.2 -5.8,7 -8.6,11.4 -2.8,4.5 -7.5,7.1 -10.5,11.4 -1.2,1.7 -1.9,3.4 -2.4,5.4 -1,3.4 -2,4.5 -5.3,5.6 -4.5,1.5 -5.8,6.7 -9.6,9.2 -1.7,1.1 -0.7,6.1 1,5.1 1.3,-0.9 1,-3.5 2,-5.1 2.1,-3 5.6,-5.4 8.6,-6.5 3.9,-1.4 4.8,-2.7 6,-6.8 1.8,-5.8 5.7,-8.5 9.7,-12.8 4.2,-4.4 5.5,-10.5 10.5,-14.2 1.7,-1.2 0.2,-3.9 -1.4,-2.7 z"
   id="path49"
   style="stroke-width:1.01421" /> </g> <g
   id="g51"
   style="stroke-width:1.01421"> <path
   class="st0"
   d="m 80.8,377.4 c -3.5,-8 -10.7,-13.7 -19.2,-15.3 -1.9,-0.4 -2.8,2.6 -0.8,3 7.9,1.5 14.2,6.6 17.4,13.9 0.8,1.8 3.4,0.2 2.6,-1.6 z"
   id="path50"
   style="stroke-width:1.01421" /> </g> <g
   id="g52"
   style="stroke-width:1.01421"> <path
   class="st0"
   d="m 88.4,341.8 c 3.9,-0.9 6.1,7.7 6.7,10.1 0.8,3.1 1.7,9.2 -0.3,12.1 0.6,-0.2 1.2,-0.5 1.7,-0.7 -2.4,-0.6 -3.3,-15.1 -4.1,-17.7 -1,-3.3 -2.7,-7.6 -6.7,-6.9 -2,0.3 -1.1,3.3 0.8,3 5.1,-0.8 3.4,23.1 9.2,24.6 0.7,0.2 1.4,-0.1 1.7,-0.7 3.2,-4.7 1.2,-13.5 -0.6,-18.3 -1.6,-4.2 -3.9,-9.7 -9.3,-8.4 -1.9,0.4 -1.1,3.4 0.9,2.9 z"
   id="path51"
   style="stroke-width:1.01421" /> </g> <g
   id="g53"
   style="stroke-width:1.01421"> <path
   class="st0"
   d="m 84.6,338.3 c -6.4,-4 -17.4,-2.3 -20.7,5 -0.5,1 0.1,2.4 1.3,2.3 3,-0.1 5.4,-1.6 8.2,-2.4 2.5,-0.8 8,-3 10.3,-1.2 1.6,1.2 3.1,-1.5 1.6,-2.7 -2.3,-1.7 -5,-0.9 -7.6,-0.4 -1.9,0.4 -3.9,0.9 -5.8,1.5 -2.2,0.7 -4.4,2.1 -6.8,2.1 0.4,0.8 0.9,1.6 1.3,2.3 2.6,-5.7 11.4,-7.1 16.4,-3.9 1.9,1.1 3.5,-1.6 1.8,-2.6 z"
   id="path52"
   style="stroke-width:1.01421" /> </g> <g
   id="g54"
   style="stroke-width:1.01421"> <path
   class="st0"
   d="m 85.5,336.7 c -2.6,-4.3 -5.3,-8.7 -9.9,-11.1 -1.8,-0.9 -3.3,1.7 -1.6,2.7 4.1,2.2 6.5,6.1 8.8,10 1.1,1.7 3.7,0.1 2.7,-1.6 z"
   id="path53"
   style="stroke-width:1.01421" /> </g> <g
   id="g55"
   style="stroke-width:1.01421"> <path
   class="st0"
   d="m 88.7,356.7 c -3.7,-4.2 -9.1,-10.6 -15.3,-10.5 -2,0 -2,3.1 0,3.1 5.1,0 10,6.1 13.1,9.6 1.3,1.4 3.5,-0.8 2.2,-2.2 z"
   id="path54"
   style="stroke-width:1.01421" /> </g> <g
   id="g56"
   style="stroke-width:1.01421"> <path
   class="st0"
   d="m 84.6,362.2 c -2.9,-5.3 -7.6,-8.8 -13.3,-10.5 -1.9,-0.6 -2.7,2.4 -0.8,3 5,1.5 9,4.5 11.5,9.1 0.8,1.8 3.5,0.2 2.6,-1.6 z"
   id="path55"
   style="stroke-width:1.01421" /> </g> <g
   id="g57"
   style="stroke-width:1.01421"> <path
   class="st0"
   d="m 80.7,366.2 c -1.4,-2.4 -2.8,-4.4 -5.2,-5.9 -2.7,-1.8 -5.6,-3.2 -8.4,-4.7 -1.5,-0.8 -3.3,1.3 -1.9,2.4 0.3,0.3 0.6,0.5 1,0.8 1.5,1.2 3.7,-1 2.2,-2.2 -0.3,-0.3 -0.6,-0.5 -1,-0.8 -0.6,0.8 -1.2,1.6 -1.9,2.4 2.3,1.3 4.7,2.5 7,3.8 2.5,1.5 4.1,3.2 5.5,5.7 1,1.8 3.7,0.2 2.7,-1.5 z"
   id="path56"
   style="stroke-width:1.01421" /> </g> <g
   id="g58"
   style="stroke-width:1.01421"> <path
   class="st0"
   d="m 126.6,333.5 c 5.1,9.5 9.9,19.5 15.6,28.7 2.5,4 5.6,7.4 8.6,11 1.3,1.6 4.2,4.8 2.9,7.3 -0.5,0.9 -2.4,1.9 -3.3,2.6 -2.1,1.5 -4.2,2.9 -6.4,4.2 -4.9,2.9 -12.8,7.4 -17.7,2 -3.6,-3.9 -2.9,-10.4 -4.7,-15.1 -3.6,-9.3 -14.4,-15 -14,-25.8 0.1,-2 -3,-2 -3.1,0 -0.2,5.9 2.5,10.7 6.1,15.2 2.2,2.7 4.7,5.3 6.5,8.3 2,3.3 2.6,6.9 3.3,10.6 0.9,4.8 2.7,9.6 7.6,11.5 4.7,1.8 9.6,0.1 13.9,-2 4.6,-2.4 11.8,-5.9 14.9,-10.3 2.5,-3.6 -0.8,-7.3 -3.1,-10.1 -4.8,-5.8 -9,-11.3 -12.6,-17.9 -3.9,-7.3 -7.9,-14.6 -11.8,-21.8 -1,-1.7 -3.6,-0.1 -2.7,1.6 z"
   id="path57"
   style="stroke-width:1.01421" /> </g> <g
   id="g59"
   style="stroke-width:1.01421"> <path
   class="st0"
   d="m 126.2,339.8 c 3.7,-1.4 6.5,0.8 8.8,3.5 1.3,1.5 2.7,3.2 3.2,5.2 0.8,3.3 -0.8,2.2 -2.2,1 -2.4,-2 -4.8,-4 -7.2,-5.9 -1.9,-1.5 -3.6,-3.4 -6,-3.9 -1.9,-0.4 -2.8,2.6 -0.8,3 2.9,0.6 5.9,4.2 8.2,6 1.8,1.5 3.8,3.8 6,4.9 2.6,1.3 5,-0.4 5.3,-3.1 0.5,-3.8 -2.5,-7.5 -5,-10.1 -2.9,-3.1 -6.9,-5 -11.1,-3.4 -1.8,0.5 -1,3.5 0.8,2.8 z"
   id="path58"
   style="stroke-width:1.01421" /> </g> <g
   id="g60"
   style="stroke-width:1.01421"> <path
   class="st0"
   d="m 123,338.2 c -10.3,4.8 -14.9,16.1 -11,26.8 0.4,1.2 2.2,1.6 2.8,0.4 1.4,-2.7 1.3,-5.8 2.1,-8.8 0.9,-3.4 2.8,-10.5 6.7,-11.7 1.9,-0.6 1.1,-3.6 -0.8,-3 -3.7,1.1 -5.3,4.8 -6.8,8.1 -0.8,1.9 -1.5,3.8 -2,5.7 -0.7,2.5 -0.5,5.7 -1.7,8 0.9,0.1 1.9,0.2 2.8,0.4 -3.4,-9.5 0.5,-19 9.6,-23.3 1.7,-0.7 0.1,-3.4 -1.7,-2.6 z"
   id="path59"
   style="stroke-width:1.01421" /> </g> <g
   id="g61"
   style="stroke-width:1.01421"> <path
   class="st0"
   d="m 136.3,352.6 c -5.5,-1 -11,0.8 -14.8,5 -1.3,1.5 0.9,3.7 2.2,2.2 3,-3.4 7.3,-5 11.8,-4.2 1.9,0.3 2.7,-2.7 0.8,-3 z"
   id="path60"
   style="stroke-width:1.01421" /> </g> <g
   id="g62"
   style="stroke-width:1.01421"> <path
   class="st0"
   d="m 138.6,358.2 c -5.1,-2.3 -9.9,0 -14.3,2.7 -1.7,1 -0.1,3.7 1.6,2.7 3.3,-2 7.2,-4.5 11.2,-2.7 1.8,0.8 3.3,-1.9 1.5,-2.7 z"
   id="path61"
   style="stroke-width:1.01421" /> </g> <g
   id="g63"
   style="stroke-width:1.01421"> <path
   class="st0"
   d="m 141.3,363.2 c -4.7,-2.7 -10.6,1.3 -13.9,4.6 -1.4,1.4 0.8,3.6 2.2,2.2 2.2,-2.2 6.9,-6 10.2,-4.1 1.7,1 3.2,-1.7 1.5,-2.7 z"
   id="path62"
   style="stroke-width:1.01421" /> </g> <g
   id="g64"
   style="stroke-width:1.01421"> <path
   class="st0"
   d="m 145.6,366.3 c -10.3,-0.7 -16.5,5.4 -23.6,11.9 -1.5,1.3 0.7,3.5 2.2,2.2 6.4,-5.9 12,-11.6 21.4,-11 2,0.1 2,-3 0,-3.1 z"
   id="path63"
   style="stroke-width:1.01421" /> </g> <g
   id="g65"
   style="stroke-width:1.01421"> <path
   class="st0"
   d="m 154.7,375.9 c -5.6,-1.6 -11.7,-3.1 -17.1,-0.2 -5.6,3 -8.5,9.1 -12.7,13.6 -1.3,1.4 0.8,3.5 2.1,2.1 3.2,-3.4 5.6,-7.7 9,-10.9 5.2,-4.8 11.7,-3.5 17.9,-1.8 1.9,0.6 2.7,-2.3 0.8,-2.8 z"
   id="path64"
   style="stroke-width:1.01421" /> </g> <g
   id="g66"
   style="stroke-width:1.01421"> <path
   class="st0"
   d="m 76,204 c -4.6,2.2 -11.1,-0.5 -15.7,-1.4 -2,-0.4 -6.4,-2 -7.6,0.6 -0.8,1.8 1.9,3.4 2.7,1.6 0.2,-0.4 10.8,2.3 11.9,2.5 3.5,0.6 7,1 10.3,-0.6 1.7,-0.9 0.2,-3.5 -1.6,-2.7 z"
   id="path65"
   style="stroke-width:1.01421" /> </g> <g
   id="g67"
   style="stroke-width:1.01421"> <path
   class="st0"
   d="m 14,214.5 c 2.5,12 5,24 8.3,35.9 2.5,9.3 9.5,16.3 19.7,13.1 1.9,-0.6 1.1,-3.6 -0.8,-3 -13.6,4.3 -16.1,-11.5 -18.5,-21 -2.1,-8.6 -4,-17.2 -5.8,-25.8 -0.3,-2 -3.3,-1.2 -2.9,0.8 z"
   id="path66"
   style="stroke-width:1.01421" /> </g> <g
   id="g68"
   style="stroke-width:1.01421"> <path
   class="st0"
   d="m 43.5,263.1 c 8.5,-3.5 13.8,-8.2 14.3,-17.9 0.5,-8.5 -0.7,-17.5 0.7,-25.9 0.3,-1.9 -2.7,-2.8 -3,-0.8 -1.1,6.9 -0.5,14.4 -0.6,21.4 -0.1,3.2 0,6.5 -0.8,9.6 -1.6,5.9 -6,8.3 -11.4,10.5 -1.9,0.9 -1.1,3.9 0.8,3.1 z"
   id="path67"
   style="stroke-width:1.01421" /> </g> <g
   id="g69"
   style="stroke-width:1.01421"> <path
   class="st0"
   d="m 46.2,151.1 c 2.3,-4.6 5,-8.3 3.7,-13.7 -1.1,-4.7 -4.6,-9.1 -8.3,-12.1 -2.2,-1.8 -4,-1.3 -5.3,1.4 -2.6,5.9 3.4,8.3 3.3,13.7 0,2 3,2 3.1,0 0,-2.2 -0.5,-3.6 -1.7,-5.5 -0.8,-1.2 -2.5,-3.3 -2.3,-4.8 0.6,-3.8 2.3,-1.2 3.4,0 2.2,2.3 4.1,5 4.8,8.2 1,4.4 -1.5,7.6 -3.4,11.3 -0.8,1.7 1.8,3.3 2.7,1.5 z"
   id="path68"
   style="stroke-width:1.01421" /> </g> <g
   id="g70"
   style="stroke-width:1.01421"> <path
   class="st0"
   d="m 35.7,110.7 c 1.6,1.9 3.3,4.4 4.1,6.8 0.4,1.1 0.4,2.4 -1.1,1.7 -0.7,-0.3 -1.3,-1.2 -2,-1.6 -1.7,-1.1 -3.2,1.6 -1.6,2.7 1.3,0.8 2.1,2.1 3.7,2.3 1.9,0.3 3.9,-1.2 4.2,-3.1 0.3,-1.7 -0.6,-3.8 -1.4,-5.2 -1.1,-2 -2.3,-4.1 -3.9,-5.8 -1.1,-1.5 -3.3,0.7 -2,2.2 z"
   id="path69"
   style="stroke-width:1.01421" /> </g> <g
   id="g71"
   style="stroke-width:1.01421"> <path
   class="st0"
   d="m 31,113.4 c 0.4,1.9 0.9,3.7 1.3,5.6 0.2,1 0.4,1.9 0.5,2.9 0,0.3 0.2,3.4 -0.5,3 -1.7,-1.1 -3.2,1.6 -1.6,2.7 3.4,2.2 5.4,-1.9 5.2,-4.7 -0.2,-3.5 -1.3,-6.9 -2,-10.2 -0.3,-2.1 -3.3,-1.2 -2.9,0.7 z"
   id="path70"
   style="stroke-width:1.01421" /> </g> <g
   id="g72"
   style="stroke-width:1.01421"> <path
   class="st0"
   d="m 25.9,116.8 c 0.6,1.7 1.1,3.6 1.4,5.4 0.2,1 0.3,2 0.4,3 0,0.4 0.1,0.9 0,1.3 0,0.2 -0.1,0.3 -0.1,0.5 -0.4,0.5 -0.3,0.7 0.3,0.6 -0.9,-1.8 -3.6,-0.2 -2.7,1.6 1.8,3.7 5.3,0 5.5,-2.7 0.3,-3.4 -0.7,-7.4 -1.9,-10.6 -0.6,-1.8 -3.6,-1 -2.9,0.9 z"
   id="path71"
   style="stroke-width:1.01421" /> </g> <g
   id="g73"
   style="stroke-width:1.01421"> <path
   class="st0"
   d="m 37.2,107.9 c -0.9,-1.1 -2.4,-1.3 -3.6,-0.8 -1.4,0.5 -2.2,1.8 -2.8,3.2 -0.3,0.8 -0.2,1.7 0.6,2.1 0.7,0.4 1.8,0.2 2.1,-0.6 0.2,-0.5 0.5,-1.4 1.1,-1.8 0.3,-0.2 0.3,-0.1 0.5,0 0.5,0.6 1.6,0.5 2.2,0 0.6,-0.5 0.5,-1.4 -0.1,-2.1 z"
   id="path72"
   style="stroke-width:1.01421" /> </g> <g
   id="g74"
   style="stroke-width:1.01421"> <path
   class="st0"
   d="m 30.3,109.9 c -1.5,0 -2.9,0.3 -4.1,1.3 -1.2,1 -1.6,2.4 -1.3,3.9 0.2,0.8 1.1,1.3 1.9,1.1 0.9,-0.2 1.2,-1.1 1.1,-1.9 -0.2,-1.1 1.8,-1.3 2.4,-1.3 2,0 2,-3.1 0,-3.1 z"
   id="path73"
   style="stroke-width:1.01421" /> </g> <g
   id="g75"
   style="stroke-width:1.01421"> <path
   class="st0"
   d="m 41.2,116 c 0.9,4.5 1.9,8.6 1.6,13.2 -0.1,2 3,2 3.1,0 0.2,-4.9 -0.8,-9.3 -1.8,-14 -0.3,-2 -3.3,-1.2 -2.9,0.8 z"
   id="path74"
   style="stroke-width:1.01421" /> </g> <g
   id="g76"
   style="stroke-width:1.01421"> <path
   class="st0"
   d="m 41.4,116.7 c 2.9,1 6.6,0.5 8.6,-2.1 1.7,-2.3 0.6,-4.8 -2,-5.7 -2.7,-0.9 -7.3,-1 -9.6,0.9 -0.9,0.8 -1.7,1.9 -1.5,3.2 0.2,1.3 1.4,1.6 1.9,2.7 0.8,1.8 3.5,0.2 2.7,-1.6 -0.2,-0.4 -0.4,-0.8 -0.8,-1.1 -0.5,-0.6 -0.8,-0.3 -0.2,-0.9 1,-0.9 3.2,-0.6 4.4,-0.5 1.2,0 4,0.3 2,1.8 -1.3,1 -3.2,0.8 -4.6,0.3 -1.9,-0.6 -2.7,2.4 -0.9,3 z"
   id="path75"
   style="stroke-width:1.01421" /> </g> <path
   class="st0"
   d="m 98.5,55.4 c 2.4,-1.8 4.7,-3.6 7.1,-5.4 -3.5,2.9 -7.1,5.7 -10.6,8.6 0,0 -0.1,0 -0.1,0.1 -3,2.4 -6,4.8 -8.9,7.2 -0.3,0.3 -0.4,0.6 -0.4,1 0,0.1 0,0.2 0,0.3 1.8,6.6 2.8,13.4 4.2,20.2 0,0.1 0.1,0.2 0.1,0.3 0.1,0.4 0.5,0.7 1,0.6 0.2,0 0.5,0 0.6,-0.1 9.2,-2.1 18.3,-4.7 27.4,-7.1 0.4,-0.1 0.6,-0.4 0.7,-0.7 1.5,-3.1 3.1,-6.1 4.7,-9.1 C 135,51 145.9,31 156.7,11 c 0.3,-0.6 0,-1.2 -0.6,-1.4 -0.2,-0.1 -0.5,-0.2 -0.9,-0.1 -12,3 -23.8,6.5 -35.6,9.8 -11.9,3.4 -24,6.6 -35.8,10.3 -0.1,0 -0.2,0.1 -0.4,0.1 -0.2,0.1 -0.3,0.3 -0.4,0.4 -5.5,7.7 -11.1,15.2 -16,23.2 -0.5,0.8 0.1,1.6 0.7,1.8 5.7,3.2 11.5,6.1 16.7,9.9 0.1,0.1 0.2,0.1 0.3,0.1 0.3,0.2 0.7,0.2 1,-0.1 3.2,-2.5 6.5,-5 9.8,-7.5 0.1,0 0.2,-0.1 0.3,-0.2 0.9,-0.6 1.8,-1.2 2.7,-1.9 z m 0.7,-3.3 c 2.1,-3.6 4,-7.3 6,-10.9 3.5,-6.2 7.1,-12.3 10.5,-18.6 0.8,-0.2 1.6,-0.5 2.4,-0.7 1.2,4.4 2.1,9 3.3,13.4 -7.4,5.6 -14.8,11.2 -22.2,16.8 z m 35.5,-4.9 c -11.3,3.7 -22.9,6.5 -34.4,9.8 7.9,-6.4 15.7,-12.7 23.6,-19.1 4,2.3 8.3,4.3 12.4,6.5 -0.5,0.9 -1,1.8 -1.6,2.8 z M 112.9,23.4 c -3,5.5 -6.1,10.8 -9.2,16.3 -3,5.3 -5.8,11.1 -9.3,16.1 -3.1,2.4 -6.2,4.7 -9.3,7.1 -5,-3.5 -10.4,-6.3 -15.7,-9.3 4.8,-7.6 10.1,-14.8 15.3,-22 9.3,-2.9 18.7,-5.6 28.2,-8.2 z m 7.5,-2.1 c 10.2,-2.9 20.5,-5.9 30.7,-8.6 -1.9,1.5 -3.9,2.9 -5.8,4.4 -7.3,5.6 -14.7,11.2 -22.1,16.8 -1.1,-4.2 -2,-8.4 -3.1,-12.6 0.2,0 0.2,0 0.3,0 z m 27.8,1 c -3.6,6.7 -7.2,13.4 -10.8,20.1 -3.8,-2.1 -7.8,-3.9 -11.6,-6 2.7,-2.2 5.5,-4.4 8.2,-6.7 6,-4.9 12.3,-9.7 18.2,-14.9 -1.4,2.5 -2.7,5 -4,7.5 z M 87.8,67.1 c 2.8,-2.2 5.5,-4.4 8.3,-6.7 12.3,-3.6 24.9,-6.7 37.2,-10.5 -1.3,2.3 -2.5,4.7 -3.8,7 -3.9,7.3 -8.2,14.6 -11.7,22.1 -8.7,2.3 -17.3,4.7 -26.1,6.7 -1.3,-6.2 -2.3,-12.5 -3.9,-18.6 z"
   id="path76"
   style="stroke-width:1.01421" /> <g
   id="g77"
   style="stroke-width:1.01421"> <path
   class="st0"
   d="m 111.2,149.2 c -0.6,4.5 2.6,8.7 6.6,10.4 3.3,1.4 8.4,1.3 10.8,-1.6 2.2,-2.6 1.9,-7.9 -0.9,-10 -3.7,-2.8 -10.8,-1.6 -15,-1.2 -2,0.2 -2,3.3 0,3.1 3.8,-0.4 16.7,-2.2 14,5.2 -1.1,3 -6,2.5 -8.2,1.4 -2.8,-1.4 -4.7,-4.2 -4.3,-7.3 0.3,-1.9 -2.8,-1.9 -3,0 z"
   id="path77"
   style="stroke-width:1.01421" /> </g> <g
   id="g78"
   style="stroke-width:1.01421"> <path
   class="st0"
   d="m 105.2,149.8 c 1,1.4 -1.5,5.8 -2.5,6.8 -2.5,2.4 -7.4,2.2 -9.7,-0.1 -1.3,-1.3 -2.3,-4.6 0,-6 1.1,-0.6 3.5,-0.4 4.8,-0.5 2.9,-0.2 6.1,-0.8 8.9,0.2 1.9,0.7 2.7,-2.3 0.8,-3 -2.7,-1 -5.6,-0.6 -8.4,-0.4 -2.4,0.1 -5.9,-0.1 -8.1,1.2 -3.5,2 -2.9,9.1 -0.1,11.4 3.3,2.7 9.6,2.7 13,0.3 2.6,-1.9 6.1,-8.4 4,-11.4 -1.2,-1.7 -3.9,-0.1 -2.7,1.5 z"
   id="path78"
   style="stroke-width:1.01421" /> </g> <g
   id="g79"
   style="stroke-width:1.01421"> <path
   class="st0"
   d="m 107.5,150.7 c 1.3,-0.5 2.8,-1.1 4.1,-0.3 1.7,1.1 3.2,-1.6 1.6,-2.7 -2,-1.3 -4.4,-0.8 -6.5,0 -1.8,0.7 -1,3.7 0.8,3 z"
   id="path79"
   style="stroke-width:1.01421" /> </g> </g> </svg>
